<?xml version="1.0" encoding="UTF-8"?>
<svg xmlns="http://www.w3.org/2000/svg" viewBox="0 0 1282.85 1026.42">
  <defs>
    <style>
      .cls-1 {
        fill: #bf7643;
        stroke: #000;
        stroke-miterlimit: 10;
      }
    </style>
  </defs>
  <g id="Layer_1" data-name="Layer 1">
    <path class="cls-1" d="M2,1.92S-.36,275.58,2,273.76l182.28-141.03s36.47,94.06,38.46,91.03l119.23-182.05s-11.54-39.79-14.1-39.79H2Z"/>
  </g>
  <g id="Layer_2" data-name="Layer 2">
    <polygon class="cls-1" points="327.87 1.92 402.23 217.35 525.31 227.61 659.92 157.1 508.64 39.15 327.87 1.92"/>
  </g>
  <g id="Layer_3" data-name="Layer 3">
    <polyline class="cls-1" points="335.77 3.54 508.64 39.15 659.92 157.1 803.51 128.89 793.26 312.22 933 68.63 924.03 1.92 341.97 1.92"/>
  </g>
  <g id="Layer_4" data-name="Layer 4">
    <polygon class="cls-1" points="924.03 1.92 941.97 131.46 1009.92 267.35 1165.05 209.66 1282 1.92 924.03 1.92"/>
  </g>
  <g id="Layer_5" data-name="Layer 5">
    <path class="cls-1" d="M1282,1.92l-164.38,293.64,69.23,32.05-64.1,186.31,110.26-61.95,49,70.51V1.92Z"/>
  </g>
  <g id="Layer_6" data-name="Layer 6">
    <polygon class="cls-1" points="2 273.76 184.28 132.74 283 382.74 359.92 360.94 283 490.43 133 442.99 71.46 548.12 .95 577.61 2 273.76"/>
  </g>
  <g id="Layer_7" data-name="Layer 7">
    <polygon class="cls-1" points="341.97 41.71 221.74 227.61 283 382.74 359.92 360.94 283 490.43 516.33 425.04 525.31 227.61 402.23 217.35 341.97 41.71"/>
  </g>
  <g id="Layer_8" data-name="Layer 8">
    <path class="cls-1" d="M525.31,227.61c-.17,3.66,134.62-70.51,134.62-70.51l55.13,123.08,20.51,175.64-128.21,139.74-91.03-170.51,8.97-197.44Z"/>
  </g>
  <g id="Layer_9" data-name="Layer 9">
    <polygon class="cls-1" points="659.92 157.1 803.51 128.89 793.26 312.22 933 68.63 941.97 131.46 1007.35 262.2 979.15 428.89 900.95 563.51 735.56 450.69 715.05 280.17 659.92 157.1"/>
  </g>
  <g id="Layer_10" data-name="Layer 10">
    <polygon class="cls-1" points="1007.35 262.2 1169.5 202.87 1117.61 295.56 1186.85 327.61 1122.74 513.92 1097.1 645.56 1021.46 703.25 900.95 563.51 979.15 428.89 1007.35 262.2"/>
  </g>
  <g id="Layer_11" data-name="Layer 11">
    <polygon class="cls-1" points=".95 577.61 71.46 548.12 133 442.99 279.15 490.43 254.79 663.51 149.67 663.51 162.49 776.33 2 776.33 .95 577.61"/>
  </g>
  <g id="Layer_12" data-name="Layer 12">
    <polygon class="cls-1" points="279.15 490.43 516.33 425.04 461.2 776.33 255.58 657.95 279.15 490.43"/>
  </g>
  <g id="Layer_13" data-name="Layer 13">
    <polygon class="cls-1" points="516.33 425.04 472.67 703.25 642 853.25 804.79 722.48 727.87 600.69 607.36 595.56 516.33 425.04"/>
  </g>
  <g id="Layer_14" data-name="Layer 14">
    <polygon class="cls-1" points="607.36 595.56 739.04 453.06 900.95 563.51 1103.01 799.4 804.79 722.48 727.87 600.69 607.36 595.56"/>
  </g>
  <g id="Layer_15" data-name="Layer 15">
    <polygon class="cls-1" points="1233 451.97 1282 522.48 1282 907.1 1103.01 799.4 1021.46 703.25 1097.1 645.56 1122.74 513.92 1233 451.97"/>
  </g>
  <g id="Layer_16" data-name="Layer 16">
    <polygon class="cls-1" points="2 776.33 162.49 776.33 149.67 663.51 255.58 657.95 461.2 776.33 285.56 927.61 2 776.33"/>
  </g>
  <g id="Layer_17" data-name="Layer 17">
    <polyline class="cls-1" points="2 776.33 7.3 779.16 285.56 927.61 425.59 807.01 533 922.48 404.79 1025.92 2 1025.92"/>
  </g>
  <g id="Layer_18" data-name="Layer 18">
    <polyline class="cls-1" points="471.83 708.64 461.2 776.33 425.59 807.01 533 922.48 404.79 1025.92 749.67 1025.92 799.67 867.28 709.03 799.4 642 853.25 472.67 703.25"/>
  </g>
  <g id="Layer_19" data-name="Layer 19">
    <polygon class="cls-1" points="709.03 799.4 804.79 722.48 1103.01 799.4 999.67 901.12 1072.74 1025.92 749.67 1025.92 799.67 867.28 709.03 799.4"/>
  </g>
  <g id="Layer_20" data-name="Layer 20">
    <polygon class="cls-1" points="1103.01 799.4 999.67 901.12 1072.74 1025.92 1282 1025.92 1282 907.1 1103.01 799.4"/>
  </g>
</svg>